<svg xmlns="http://www.w3.org/2000/svg" viewBox="0 0 96 96" role="img" aria-label="L'ère des consciences">
 <defs><linearGradient id="g" x1="15" y1="11" x2="83" y2="87"><stop stop-color="#FFD6A3"/><stop offset="1" stop-color="#D88CFF"/></linearGradient></defs>
 <circle cx="48" cy="48" r="42" fill="#13101E" stroke="url(#g)" stroke-width="2"/>
 <path d="M22 31c10-3 19 0 26 8 7-8 16-11 26-8v37c-10-3-19 0-26 8-7-8-16-11-26-8z" fill="none" stroke="url(#g)" stroke-width="4" stroke-linejoin="round"/>
 <path d="M48 39v37M31 43c5-.4 9 1 13 4M65 43c-5-.4-9 1-13 4" fill="none" stroke="#FFF2E1" stroke-width="2.4" stroke-linecap="round"/>
 <circle cx="48" cy="23" r="4" fill="#FFF2E1"/><path d="M48 12v5M36 17l4 4M60 17l-4 4" stroke="#FFF2E1" stroke-width="2" stroke-linecap="round"/>
</svg>
